<svg xmlns="http://www.w3.org/2000/svg" xmlns:xlink="http://www.w3.org/1999/xlink" viewBox="1880.16 651.46 9121.13 10701.13">
	<path transform="scale(12.3542 12.3542)" d="M519.77 52.8819C528.612 52.0271 537.607 54.9493 545.559 58.5659C556.666 63.6169 567.29 69.8159 577.958 75.7144Q594.87 85.1161 612.106 93.9076L771.324 175.74L843.75 212.843C851.739 216.917 867.179 223.202 873.526 228.462C884.103 237.228 889.015 249.282 890.036 262.709C890.876 273.746 890.321 284.775 890.163 295.825Q889.964 315.673 889.992 335.523L889.541 494.594L889.482 638.168L889.589 682.889C889.609 692.444 889.965 702.294 889.111 711.807C888.355 720.228 885.589 728.796 879.961 735.24C876.616 739.07 872.679 742.108 868.305 744.666C853.854 753.117 838.325 760.195 823.449 767.921L725.377 818.877L607.393 880.235L570.518 899.431C561.887 903.986 553.364 908.902 544.517 913.022C537.59 916.249 531.421 918.423 523.787 918.926C515.999 918.534 509.411 916.674 502.298 913.466C494.147 909.79 486.339 905.155 478.383 901.064L431.974 877.421L275.004 796.637L202.227 759.236C191.817 753.818 179.275 748.961 170.133 741.599C160.186 733.59 153.972 720.423 152.736 707.824C151.877 699.071 152.342 689.993 152.397 681.205L152.663 636.988L152.73 499.854L152.499 334.482L152.377 285.846C152.343 276.536 151.804 266.851 152.714 257.593Q152.877 256.053 153.154 254.53Q153.43 253.006 153.819 251.508Q154.209 250.009 154.708 248.543Q155.208 247.078 155.814 245.653Q156.421 244.229 157.132 242.853Q157.844 241.478 158.655 240.159Q159.466 238.84 160.373 237.586Q161.28 236.331 162.278 235.147C166.242 230.368 171.473 227.245 176.857 224.297C198.168 212.625 220.47 202.338 242.138 191.301L371.73 124.723C398.332 111.013 425.173 97.6577 451.563 83.5497L485.836 65.0422C491.096 62.1988 496.268 59.0475 501.716 56.5739C507.476 53.9586 513.561 53.4971 519.77 52.8819ZM210.473 282.323C203.155 284.806 197.384 288.752 193.88 295.89C191.534 300.669 191.331 306.587 191.176 311.84C190.564 332.637 191.471 353.503 191.468 374.309L191.518 525.43L191.677 636.237C191.691 649.936 189.76 691.233 193.147 701.741C196.067 710.8 230.088 727.17 239.109 730.989C245.86 733.847 248.676 733.853 255.444 731.03C262.019 728.287 268.314 724.735 274.627 721.439L304.16 706.015L400.907 655.763C426.321 641.766 455.802 632.765 464.941 601.771C470.963 581.346 466.711 562.025 456.673 543.718C455.232 541.088 453.728 538.45 451.815 536.129C448.017 531.519 435.445 521.056 437.099 514.454C438.822 507.578 447.062 502.291 451.386 496.933C468.39 475.861 473.767 444.959 460.75 420.557C454.847 409.492 445.791 400.723 435.422 393.838C420.112 383.674 402.426 376.222 385.982 368.095L313.342 331.388L247.282 297.162C238.023 292.383 228.528 285.895 218.517 282.89C215.864 282.094 213.21 282.029 210.473 282.323ZM827.114 283.355C812.497 288.259 799.529 296.37 785.899 303.396L719.898 337.273L649.652 372.867C634.154 380.619 617.501 387.984 602.967 397.422Q601.76 398.199 600.606 399.054Q599.453 399.909 598.357 400.838Q597.263 401.767 596.231 402.766Q595.199 403.765 594.235 404.829Q593.272 405.894 592.38 407.019Q591.488 408.145 590.672 409.326Q589.856 410.508 589.12 411.741Q588.383 412.974 587.729 414.252C584.814 420.058 583.241 426.594 582.706 433.046C581.946 442.209 582.461 451.64 582.523 460.832L582.542 503.396L582.44 559.107C582.385 571.137 581.938 583.288 582.614 595.301C582.922 600.776 583.705 606.224 585.468 611.434C588.33 619.891 593.376 626.138 600.506 631.416C610.722 638.979 623.287 644.32 634.569 650.192Q665.269 666.337 696.205 682.028Q729.058 699.018 761.595 716.605C772.529 722.539 783.396 729.272 794.539 734.737C794.888 734.908 795.245 735.062 795.6 735.22C804.859 730.532 814.064 725.687 823.389 721.138C829.064 718.37 835.326 716.079 840.63 712.699C843.175 711.078 847.124 708.377 848.038 705.454C849.395 701.114 849.907 696.456 850.148 691.933C850.779 680.058 850.444 668.054 850.414 656.163L850.361 598.563L850.535 548.287C850.579 537.918 851.013 527.355 850.244 517.011C849.939 512.903 849.121 508.874 847.199 505.198C844.454 499.95 839.719 496.438 834.087 494.776C821.438 491.045 798.175 493.469 784.49 493.42L719.349 493.386C707.112 493.341 693.492 491.698 681.506 494.27C677.222 495.189 673.442 497.295 670.332 500.384Q669.908 500.809 669.506 501.255Q669.104 501.702 668.725 502.168Q668.346 502.634 667.991 503.118Q667.637 503.603 667.307 504.105Q666.977 504.607 666.673 505.125Q666.369 505.643 666.092 506.175Q665.814 506.708 665.564 507.254Q665.314 507.8 665.092 508.358Q664.87 508.916 664.677 509.485Q664.483 510.053 664.319 510.631Q664.154 511.209 664.019 511.794Q663.884 512.379 663.779 512.971Q663.674 513.562 663.599 514.158Q663.524 514.754 663.479 515.353Q663.434 515.952 663.419 516.552Q663.405 517.153 663.421 517.753C663.605 524.269 666.682 530.499 671.461 534.877Q672.023 535.4 672.62 535.883Q673.216 536.367 673.844 536.809Q674.472 537.251 675.129 537.649Q675.785 538.047 676.467 538.4Q677.149 538.753 677.853 539.059Q678.557 539.364 679.281 539.622Q680.004 539.879 680.743 540.086Q681.482 540.294 682.234 540.451C690.77 542.198 701.186 541.057 709.927 540.932C726.782 540.691 743.601 540.961 760.443 540.808C769.448 540.726 778.653 539.829 787.633 540.362C791.041 540.565 795.238 540.934 798.298 542.514C802.552 544.712 803.898 550.108 804.187 554.485C804.647 561.439 803.744 568.611 803.506 575.573C803.146 586.102 803.249 596.655 803.256 607.189C803.264 620.145 802.996 633.137 803.211 646.087C803.319 652.55 804.576 659.142 804.121 665.593C803.89 668.871 803.26 671.899 801.044 674.435C798.805 676.999 795.372 678.843 791.946 679.001C789.433 679.118 786.956 678.322 784.705 677.271C777.851 674.072 771.239 669.88 764.573 666.256L725.31 645.222L670.756 616.337C659.231 610.324 641.68 603.206 632.379 594.58C629.07 591.511 628.495 585.184 628.447 580.879C628.366 573.496 628.872 566.069 628.911 558.675L628.915 496.117L628.835 466.591C628.774 458.89 628.272 450.929 629.436 443.298C630.104 438.918 631.792 435.616 634.947 432.468C640.828 426.602 658.97 419.973 667.309 415.809Q731.752 383.742 795.726 350.75C808.362 344.225 832.332 334.039 842.377 325.745C847.816 321.254 851.599 315.418 851.81 308.164Q851.823 307.532 851.804 306.9Q851.785 306.268 851.735 305.638Q851.684 305.008 851.602 304.381Q851.52 303.754 851.407 303.132Q851.293 302.51 851.148 301.895Q851.004 301.279 850.828 300.672Q850.653 300.065 850.447 299.467Q850.242 298.869 850.006 298.282Q849.771 297.696 849.506 297.121Q849.241 296.547 848.948 295.987Q848.655 295.427 848.334 294.883Q848.013 294.338 847.665 293.81Q847.317 293.282 846.943 292.773Q846.569 292.263 846.17 291.773Q845.771 291.283 845.348 290.813Q844.924 290.344 844.478 289.896C840.695 286.067 835.476 283.186 829.988 283.203C829.029 283.206 828.07 283.277 827.114 283.355ZM521.369 98.293C514.733 99.3923 508.45 101.508 504.419 107.321C500.948 112.328 500.4 117.952 500.28 123.844C499.835 145.556 500.232 167.31 500.3 189.027L500.422 292.299L500.46 643.655L500.443 791.61L500.423 826.324C500.364 836.203 499.45 846.642 501.493 856.37C502.773 862.465 505.574 868.254 510.876 871.834C515.975 875.276 521.821 875.767 527.779 875.345C534.752 873.202 540.035 869.397 543.532 862.823C546.203 857.802 546.94 851.923 547.109 846.317C547.455 834.794 547.147 823.177 547.139 811.643L547.158 746.977L546.724 505.522L546.539 229.39L546.517 150.618C546.495 142.083 547.4 133.429 546.976 124.931C546.77 120.812 546.303 116.558 544.996 112.628C543.279 107.462 540.044 103.128 535.138 100.624C530.777 98.3967 526.186 97.9574 521.369 98.293ZM434.379 134.104C420.231 138.07 407.676 146.512 394.672 153.168Q360.815 170.155 327.211 187.64Q305.044 199.053 282.727 210.171C274.516 214.249 265.883 217.965 257.976 222.597C253.484 225.228 248.598 228.609 245.942 233.216C243.265 237.862 242.795 244.215 244.309 249.277C245.785 254.212 248.727 257.657 252.771 260.672C265.868 270.436 288.892 280.956 304.094 288.839C340.164 307.544 376.639 325.623 412.438 344.838C421.975 350.109 434.622 359.349 445.91 356.257C451.732 354.662 456.449 350.347 459.319 345.128C462.336 339.64 463.171 333.307 461.453 327.252C458.816 317.954 452.283 313.652 444.199 309.338C436.013 304.969 427.52 301.139 419.233 296.96L369.104 271.382C360.387 266.932 350.482 263.283 342.483 257.732C338.833 255.2 335.586 252.239 334.199 247.877C333.193 244.715 333.588 241.442 335.162 238.538C336.961 235.217 339.966 232.762 343.108 230.768C351.114 225.687 360.519 221.986 369.013 217.709L425.466 189.212C435.035 184.386 447.537 179.881 454.875 171.897C460.057 166.259 462.22 158.248 460.128 150.825C458.466 144.925 454.233 139.629 448.888 136.652Q448.067 136.197 447.211 135.812Q446.356 135.427 445.471 135.115Q444.586 134.802 443.679 134.564Q442.771 134.325 441.847 134.163Q440.923 134.001 439.988 133.915Q439.054 133.83 438.115 133.823Q437.177 133.816 436.241 133.886Q435.306 133.956 434.379 134.104ZM605.615 135.211C598.994 135.741 592.984 138.093 588.56 143.279C584.766 147.727 582.771 153.856 583.28 159.689C583.819 165.876 587.111 171.021 591.908 174.81C601.517 182.398 614.77 187.465 625.784 192.895L674.892 217.192C683.339 221.306 693.36 225.137 700.694 231.078C704.119 233.852 706.993 238.014 707.585 242.456C708.111 246.395 706.672 250.188 704.169 253.2C701.771 256.086 698.62 258.298 695.446 260.25C686.656 265.656 676.768 269.98 667.532 274.645Q644.095 286.667 620.513 298.405C610.514 303.337 597.289 308.302 589.558 316.541C585.189 321.196 583.015 327.219 583.569 333.603C584.128 340.041 587.5 346.19 592.524 350.236C597.202 354.004 602.948 355.489 608.879 354.632C619.207 353.141 628.886 345.665 638.188 341.261C673.871 323.357 709.007 304.637 744.377 286.159C757.716 279.19 776.773 271.563 788.285 263.249C792.693 260.066 796 255.938 797.684 250.706C799.558 244.883 799.225 238.661 796.328 233.229C793.535 227.992 788.535 224.865 783.581 221.868C768.943 213.015 752.747 205.909 737.457 198.173L658.881 158.261C651.918 154.785 644.898 151.384 638.023 147.737C630.57 143.783 622.753 138.701 614.597 136.404C611.671 135.58 608.65 135.242 605.615 135.211ZM715.945 731.76C705.652 734.519 695.892 740.808 686.558 745.864Q670.222 754.782 653.707 763.364Q633.035 773.964 612.487 784.802C606.772 787.817 600.527 790.432 595.133 793.963C591.365 796.43 588.204 799.334 585.969 803.313Q585.684 803.832 585.425 804.365Q585.166 804.897 584.933 805.442Q584.701 805.987 584.496 806.543Q584.291 807.099 584.114 807.664Q583.937 808.23 583.788 808.803Q583.64 809.376 583.52 809.956Q583.4 810.536 583.309 811.122Q583.218 811.707 583.156 812.296Q583.094 812.885 583.061 813.477Q583.029 814.068 583.026 814.661Q583.023 815.253 583.049 815.845Q583.076 816.437 583.132 817.026Q583.188 817.616 583.273 818.202Q583.358 818.789 583.472 819.37Q583.586 819.951 583.729 820.526Q583.872 821.101 584.043 821.668C585.79 827.449 589.694 832.581 595.088 835.401C599.375 837.643 603.692 838.039 608.417 837.521C620.56 834.683 633.522 826.068 644.646 820.115L682.99 799.775C698.089 791.822 713.802 784.649 728.655 776.3C731.524 774.688 736.946 772.009 738.705 769.21C742.021 763.934 741.483 755.155 739.827 749.359C738.073 743.221 734.408 737.853 728.71 734.752Q727.248 733.965 725.695 733.377Q724.142 732.788 722.526 732.41Q720.909 732.031 719.257 731.868Q717.604 731.704 715.945 731.76ZM324.723 732.402C317.469 734.618 311.297 737.267 307.656 744.471C304.757 750.208 304.433 757.812 306.5 763.875C307.721 767.458 310.059 771.094 313.111 773.373C318.429 777.346 324.832 780.152 330.739 783.151Q342.04 788.899 353.271 794.781L402.643 820.423C411.909 825.23 421.129 830.331 430.569 834.774C435.267 836.986 439.791 838.226 445.002 838.365C451.236 837.223 456.431 835.172 460.164 829.71C463.895 824.253 464.604 817.117 463.258 810.759C461.684 803.32 457.991 798.97 451.711 794.945C444.017 790.013 435.508 785.984 427.421 781.709Q402.676 768.629 377.7 755.997L348.185 740.711C343.389 738.238 338.4 735.188 333.336 733.324C330.478 732.272 327.748 732.069 324.723 732.402Z"/>
	<path transform="scale(12.3542 12.3542)" d="M249.798 540.215L323.577 540.538C332.952 540.532 342.336 540.596 351.709 540.468C365.781 540.277 381.031 538.701 394.694 542.733C404.036 545.491 412.829 552.985 417.338 561.569C421.022 568.581 421.581 577.107 419.174 584.636C413.909 601.108 396.141 607.511 382.122 614.619L356.628 627.793L283.93 665.35C274.577 670.209 262.599 678.666 252.555 681.117C249.323 681.905 245.417 681.542 242.57 679.737C240.347 678.328 239.456 676.588 238.966 674.078C237.319 665.64 238.283 656.317 238.315 647.735L238.345 605.728L238.271 573.814C238.206 567.356 237.713 560.651 238.263 554.225C238.544 550.947 239.302 547.61 241.281 544.913C243.467 541.935 246.272 540.822 249.798 540.215Z"/>
	<path transform="scale(12.3542 12.3542)" d="M249.772 351.352C250.76 351.328 251.709 351.323 252.685 351.506C261.665 353.186 279.399 364.575 288.505 369.431L337.345 395.235Q356.663 405.244 376.087 415.045C383.918 419.017 391.991 422.781 399.509 427.325C405.059 430.68 411.032 434.88 414.748 440.312C419.812 447.714 420.827 457.938 419.119 466.593C417.109 476.779 410.425 483.504 402.05 489.033C400.928 489.657 399.793 490.219 398.61 490.719C393.122 493.038 387.11 493.81 381.21 494.177C371.093 494.807 361.04 494.116 350.928 493.862C341.993 493.638 333.031 493.838 324.093 493.866C312.133 493.904 300.151 493.811 288.194 494.075C277.185 494.317 266.059 494.972 255.055 494.481C251.591 494.327 247.851 493.887 244.662 492.444C241.964 491.223 240.39 488.88 239.43 486.138C236.809 478.651 238.708 447.901 238.658 438.09C238.542 415.151 237.415 391.849 238.48 368.943C238.636 365.592 238.709 360.919 240.328 357.922C242.252 354.361 246.051 352.441 249.772 351.352Z"/>
</svg>