<svg xmlns="http://www.w3.org/2000/svg" viewBox="-0.47 -0.47 731.9 89.18"><g id="svgGroup" stroke-linecap="round" fill-rule="evenodd" font-size="9pt" stroke="#000" stroke-width="0.25mm" fill="#000" style="stroke:#000;stroke-width:0.25mm;fill:#000"><path d="M 343.897 34.815 L 343.897 35.206 A 30.928 30.928 0 0 1 349.017 36.268 Q 351.705 37.086 353.789 38.378 A 15.046 15.046 0 0 1 356.665 40.674 A 14.857 14.857 0 0 1 360.687 48.905 A 20.83 20.83 0 0 1 360.938 52.198 A 22.533 22.533 0 0 1 360.069 58.557 A 19.355 19.355 0 0 1 358.032 63.184 A 17.889 17.889 0 0 1 352.584 68.783 A 23.927 23.927 0 0 1 349.146 70.679 Q 344.496 72.786 337.825 73.255 A 56.896 56.896 0 0 1 333.838 73.389 A 62.582 62.582 0 0 1 327.736 73.103 A 50.237 50.237 0 0 1 323.364 72.486 A 37.177 37.177 0 0 1 314.16 69.483 L 314.16 61.866 A 44.52 44.52 0 0 0 321.897 64.808 A 50.677 50.677 0 0 0 323.828 65.308 A 45.569 45.569 0 0 0 330.851 66.432 A 39.673 39.673 0 0 0 333.936 66.553 A 38.827 38.827 0 0 0 338.936 66.255 Q 344.346 65.55 347.432 63.181 A 10.732 10.732 0 0 0 348.047 62.672 A 12.749 12.749 0 0 0 352.185 54.863 A 18.29 18.29 0 0 0 352.393 52.051 A 14.495 14.495 0 0 0 352.053 48.823 A 9.9 9.9 0 0 0 349.976 44.556 A 12.069 12.069 0 0 0 346.592 41.822 Q 345.141 41.013 343.348 40.451 A 21.3 21.3 0 0 0 343.042 40.357 A 29.831 29.831 0 0 0 338.74 39.439 Q 335.748 39.014 332.178 39.014 L 325.049 39.014 L 325.049 32.081 L 332.227 32.081 A 32.93 32.93 0 0 0 336.618 31.804 Q 338.905 31.496 340.84 30.844 A 18.028 18.028 0 0 0 342.09 30.372 A 15.969 15.969 0 0 0 345.367 28.537 A 12.353 12.353 0 0 0 348.267 25.562 A 12.11 12.11 0 0 0 350.282 20.079 A 15.57 15.57 0 0 0 350.391 18.214 A 12.988 12.988 0 0 0 349.934 14.672 A 9.396 9.396 0 0 0 346.777 9.839 Q 343.588 7.232 338.381 6.926 A 24.202 24.202 0 0 0 336.963 6.885 A 32.241 32.241 0 0 0 333.109 7.106 A 25.043 25.043 0 0 0 330.029 7.667 A 28.527 28.527 0 0 0 324.17 9.815 Q 321.436 11.182 318.701 12.989 L 314.6 7.422 A 33.172 33.172 0 0 1 319.232 4.44 A 44.886 44.886 0 0 1 324.121 2.198 A 31.505 31.505 0 0 1 331.527 0.336 A 41.008 41.008 0 0 1 336.865 0.001 A 38.428 38.428 0 0 1 342.878 0.44 Q 346.05 0.943 348.587 2.024 A 16.477 16.477 0 0 1 353.272 4.981 A 16.282 16.282 0 0 1 358.724 16.841 A 21.154 21.154 0 0 1 358.74 17.676 A 20.797 20.797 0 0 1 358.359 21.752 A 15.501 15.501 0 0 1 356.885 25.977 Q 355.029 29.493 351.709 31.714 Q 348.389 33.936 343.897 34.815 Z M 656.738 34.815 L 656.738 35.206 A 30.928 30.928 0 0 1 661.859 36.268 Q 664.546 37.086 666.63 38.378 A 15.046 15.046 0 0 1 669.507 40.674 A 14.857 14.857 0 0 1 673.529 48.905 A 20.83 20.83 0 0 1 673.779 52.198 A 22.533 22.533 0 0 1 672.911 58.557 A 19.355 19.355 0 0 1 670.874 63.184 A 17.889 17.889 0 0 1 665.425 68.783 A 23.927 23.927 0 0 1 661.987 70.679 Q 657.338 72.786 650.667 73.255 A 56.896 56.896 0 0 1 646.68 73.389 A 62.582 62.582 0 0 1 640.578 73.103 A 50.237 50.237 0 0 1 636.206 72.486 A 37.177 37.177 0 0 1 627.002 69.483 L 627.002 61.866 A 44.52 44.52 0 0 0 634.738 64.808 A 50.677 50.677 0 0 0 636.67 65.308 A 45.569 45.569 0 0 0 643.692 66.432 A 39.673 39.673 0 0 0 646.777 66.553 A 38.827 38.827 0 0 0 651.777 66.255 Q 657.188 65.55 660.274 63.181 A 10.732 10.732 0 0 0 660.889 62.672 A 12.749 12.749 0 0 0 665.027 54.863 A 18.29 18.29 0 0 0 665.235 52.051 A 14.495 14.495 0 0 0 664.895 48.823 A 9.9 9.9 0 0 0 662.818 44.556 A 12.069 12.069 0 0 0 659.434 41.822 Q 657.983 41.013 656.19 40.451 A 21.3 21.3 0 0 0 655.884 40.357 A 29.831 29.831 0 0 0 651.581 39.439 Q 648.59 39.014 645.02 39.014 L 637.891 39.014 L 637.891 32.081 L 645.069 32.081 A 32.93 32.93 0 0 0 649.46 31.804 Q 651.747 31.496 653.681 30.844 A 18.028 18.028 0 0 0 654.932 30.372 A 15.969 15.969 0 0 0 658.209 28.537 A 12.353 12.353 0 0 0 661.109 25.562 A 12.11 12.11 0 0 0 663.124 20.079 A 15.57 15.57 0 0 0 663.233 18.214 A 12.988 12.988 0 0 0 662.776 14.672 A 9.396 9.396 0 0 0 659.619 9.839 Q 656.429 7.232 651.223 6.926 A 24.202 24.202 0 0 0 649.805 6.885 A 32.241 32.241 0 0 0 645.951 7.106 A 25.043 25.043 0 0 0 642.871 7.667 A 28.527 28.527 0 0 0 637.012 9.815 Q 634.277 11.182 631.543 12.989 L 627.442 7.422 A 33.172 33.172 0 0 1 632.074 4.44 A 44.886 44.886 0 0 1 636.963 2.198 A 31.505 31.505 0 0 1 644.369 0.336 A 41.008 41.008 0 0 1 649.707 0.001 A 38.428 38.428 0 0 1 655.719 0.44 Q 658.891 0.943 661.429 2.024 A 16.477 16.477 0 0 1 666.113 4.981 A 16.282 16.282 0 0 1 671.566 16.841 A 21.154 21.154 0 0 1 671.582 17.676 A 20.797 20.797 0 0 1 671.201 21.752 A 15.501 15.501 0 0 1 669.727 25.977 Q 667.871 29.493 664.551 31.714 Q 661.231 33.936 656.738 34.815 Z M 713.916 34.815 L 713.916 35.206 A 30.928 30.928 0 0 1 719.037 36.268 Q 721.724 37.086 723.808 38.378 A 15.046 15.046 0 0 1 726.685 40.674 A 14.857 14.857 0 0 1 730.707 48.905 A 20.83 20.83 0 0 1 730.957 52.198 A 22.533 22.533 0 0 1 730.088 58.557 A 19.355 19.355 0 0 1 728.052 63.184 A 17.889 17.889 0 0 1 722.603 68.783 A 23.927 23.927 0 0 1 719.165 70.679 Q 714.516 72.786 707.845 73.255 A 56.896 56.896 0 0 1 703.858 73.389 A 62.582 62.582 0 0 1 697.756 73.103 A 50.237 50.237 0 0 1 693.384 72.486 A 37.177 37.177 0 0 1 684.18 69.483 L 684.18 61.866 A 44.52 44.52 0 0 0 691.916 64.808 A 50.677 50.677 0 0 0 693.848 65.308 A 45.569 45.569 0 0 0 700.87 66.432 A 39.673 39.673 0 0 0 703.955 66.553 A 38.827 38.827 0 0 0 708.955 66.255 Q 714.365 65.55 717.452 63.181 A 10.732 10.732 0 0 0 718.067 62.672 A 12.749 12.749 0 0 0 722.204 54.863 A 18.29 18.29 0 0 0 722.412 52.051 A 14.495 14.495 0 0 0 722.072 48.823 A 9.9 9.9 0 0 0 719.995 44.556 A 12.069 12.069 0 0 0 716.612 41.822 Q 715.161 41.013 713.368 40.451 A 21.3 21.3 0 0 0 713.062 40.357 A 29.831 29.831 0 0 0 708.759 39.439 Q 705.768 39.014 702.197 39.014 L 695.069 39.014 L 695.069 32.081 L 702.246 32.081 A 32.93 32.93 0 0 0 706.637 31.804 Q 708.925 31.496 710.859 30.844 A 18.028 18.028 0 0 0 712.11 30.372 A 15.969 15.969 0 0 0 715.386 28.537 A 12.353 12.353 0 0 0 718.286 25.562 A 12.11 12.11 0 0 0 720.301 20.079 A 15.57 15.57 0 0 0 720.41 18.214 A 12.988 12.988 0 0 0 719.954 14.672 A 9.396 9.396 0 0 0 716.797 9.839 Q 713.607 7.232 708.4 6.926 A 24.202 24.202 0 0 0 706.983 6.885 A 32.241 32.241 0 0 0 703.129 7.106 A 25.043 25.043 0 0 0 700.049 7.667 A 28.527 28.527 0 0 0 694.19 9.815 Q 691.455 11.182 688.721 12.989 L 684.619 7.422 A 33.172 33.172 0 0 1 689.252 4.44 A 44.886 44.886 0 0 1 694.141 2.198 A 31.505 31.505 0 0 1 701.546 0.336 A 41.008 41.008 0 0 1 706.885 0.001 A 38.428 38.428 0 0 1 712.897 0.44 Q 716.069 0.943 718.607 2.024 A 16.477 16.477 0 0 1 723.291 4.981 A 16.282 16.282 0 0 1 728.744 16.841 A 21.154 21.154 0 0 1 728.76 17.676 A 20.797 20.797 0 0 1 728.379 21.752 A 15.501 15.501 0 0 1 726.904 25.977 Q 725.049 29.493 721.729 31.714 Q 718.408 33.936 713.916 34.815 Z M 77.197 64.991 L 77.197 72.413 L 30.42 72.413 L 30.42 65.626 L 49.512 46.241 A 263.554 263.554 0 0 0 53.267 42.377 Q 55.099 40.451 56.674 38.703 A 137.987 137.987 0 0 0 58.472 36.671 Q 62.079 32.506 63.982 28.462 A 26.687 26.687 0 0 0 64.014 28.394 A 20.508 20.508 0 0 0 65.88 20.792 A 24.211 24.211 0 0 0 65.918 19.434 A 16.343 16.343 0 0 0 65.532 15.768 Q 64.926 13.136 63.371 11.259 A 9.935 9.935 0 0 0 62.329 10.181 A 12.284 12.284 0 0 0 56.641 7.361 A 17.759 17.759 0 0 0 52.881 6.983 A 25.45 25.45 0 0 0 48.083 7.416 A 19.603 19.603 0 0 0 43.799 8.741 A 34.492 34.492 0 0 0 39.542 11.022 A 46.256 46.256 0 0 0 35.694 13.721 L 31.348 8.253 Q 34.18 5.86 37.525 4.005 A 33.212 33.212 0 0 1 44.702 1.075 Q 48.535 0.001 52.881 0.001 Q 59.35 0.001 64.079 2.211 A 19.832 19.832 0 0 1 64.258 2.296 A 17.801 17.801 0 0 1 69.601 6.147 A 16.677 16.677 0 0 1 71.655 8.839 A 17.376 17.376 0 0 1 73.959 15.108 A 22.982 22.982 0 0 1 74.268 18.946 A 25.066 25.066 0 0 1 72.669 27.93 A 23.935 23.935 0 0 1 72.022 29.468 A 38.679 38.679 0 0 1 68.613 35.353 A 49.108 49.108 0 0 1 65.723 39.088 A 134.705 134.705 0 0 1 61.328 43.989 A 180.36 180.36 0 0 1 56.25 49.171 L 40.723 64.649 L 40.723 64.991 L 77.197 64.991 Z M 191.553 64.991 L 191.553 72.413 L 144.776 72.413 L 144.776 65.626 L 163.867 46.241 A 263.554 263.554 0 0 0 167.622 42.377 Q 169.454 40.451 171.03 38.703 A 137.987 137.987 0 0 0 172.827 36.671 Q 176.435 32.506 178.338 28.462 A 26.687 26.687 0 0 0 178.369 28.394 A 20.508 20.508 0 0 0 180.236 20.792 A 24.211 24.211 0 0 0 180.274 19.434 A 16.343 16.343 0 0 0 179.887 15.768 Q 179.281 13.136 177.726 11.259 A 9.935 9.935 0 0 0 176.685 10.181 A 12.284 12.284 0 0 0 170.997 7.361 A 17.759 17.759 0 0 0 167.236 6.983 A 25.45 25.45 0 0 0 162.438 7.416 A 19.603 19.603 0 0 0 158.154 8.741 A 34.492 34.492 0 0 0 153.897 11.022 A 46.256 46.256 0 0 0 150.049 13.721 L 145.703 8.253 Q 148.535 5.86 151.88 4.005 A 33.212 33.212 0 0 1 159.058 1.075 Q 162.891 0.001 167.236 0.001 Q 173.705 0.001 178.434 2.211 A 19.832 19.832 0 0 1 178.613 2.296 A 17.801 17.801 0 0 1 183.957 6.147 A 16.677 16.677 0 0 1 186.011 8.839 A 17.376 17.376 0 0 1 188.315 15.108 A 22.982 22.982 0 0 1 188.623 18.946 A 25.066 25.066 0 0 1 187.024 27.93 A 23.935 23.935 0 0 1 186.377 29.468 A 38.679 38.679 0 0 1 182.969 35.353 A 49.108 49.108 0 0 1 180.078 39.088 A 134.705 134.705 0 0 1 175.684 43.989 A 180.36 180.36 0 0 1 170.606 49.171 L 155.078 64.649 L 155.078 64.991 L 191.553 64.991 Z M 304.199 64.991 L 304.199 72.413 L 257.422 72.413 L 257.422 65.626 L 276.514 46.241 A 263.554 263.554 0 0 0 280.269 42.377 Q 282.101 40.451 283.676 38.703 A 137.987 137.987 0 0 0 285.474 36.671 Q 289.081 32.506 290.984 28.462 A 26.687 26.687 0 0 0 291.016 28.394 A 20.508 20.508 0 0 0 292.882 20.792 A 24.211 24.211 0 0 0 292.92 19.434 A 16.343 16.343 0 0 0 292.534 15.768 Q 291.928 13.136 290.372 11.259 A 9.935 9.935 0 0 0 289.331 10.181 A 12.284 12.284 0 0 0 283.643 7.361 A 17.759 17.759 0 0 0 279.883 6.983 A 25.45 25.45 0 0 0 275.084 7.416 A 19.603 19.603 0 0 0 270.801 8.741 A 34.492 34.492 0 0 0 266.544 11.022 A 46.256 46.256 0 0 0 262.695 13.721 L 258.35 8.253 Q 261.182 5.86 264.527 4.005 A 33.212 33.212 0 0 1 271.704 1.075 Q 275.537 0.001 279.883 0.001 Q 286.352 0.001 291.081 2.211 A 19.832 19.832 0 0 1 291.26 2.296 A 17.801 17.801 0 0 1 296.603 6.147 A 16.677 16.677 0 0 1 298.657 8.839 A 17.376 17.376 0 0 1 300.961 15.108 A 22.982 22.982 0 0 1 301.27 18.946 A 25.066 25.066 0 0 1 299.671 27.93 A 23.935 23.935 0 0 1 299.024 29.468 A 38.679 38.679 0 0 1 295.615 35.353 A 49.108 49.108 0 0 1 292.725 39.088 A 134.705 134.705 0 0 1 288.33 43.989 A 180.36 180.36 0 0 1 283.252 49.171 L 267.725 64.649 L 267.725 64.991 L 304.199 64.991 Z M 617.041 64.991 L 617.041 72.413 L 570.264 72.413 L 570.264 65.626 L 589.356 46.241 A 263.554 263.554 0 0 0 593.11 42.377 Q 594.943 40.451 596.518 38.703 A 137.987 137.987 0 0 0 598.316 36.671 Q 601.923 32.506 603.826 28.462 A 26.687 26.687 0 0 0 603.858 28.394 A 20.508 20.508 0 0 0 605.724 20.792 A 24.211 24.211 0 0 0 605.762 19.434 A 16.343 16.343 0 0 0 605.375 15.768 Q 604.77 13.136 603.214 11.259 A 9.935 9.935 0 0 0 602.173 10.181 A 12.284 12.284 0 0 0 596.485 7.361 A 17.759 17.759 0 0 0 592.725 6.983 A 25.45 25.45 0 0 0 587.926 7.416 A 19.603 19.603 0 0 0 583.643 8.741 A 34.492 34.492 0 0 0 579.385 11.022 A 46.256 46.256 0 0 0 575.537 13.721 L 571.192 8.253 Q 574.024 5.86 577.368 4.005 A 33.212 33.212 0 0 1 584.546 1.075 Q 588.379 0.001 592.725 0.001 Q 599.193 0.001 603.922 2.211 A 19.832 19.832 0 0 1 604.102 2.296 A 17.801 17.801 0 0 1 609.445 6.147 A 16.677 16.677 0 0 1 611.499 8.839 A 17.376 17.376 0 0 1 613.803 15.108 A 22.982 22.982 0 0 1 614.111 18.946 A 25.066 25.066 0 0 1 612.512 27.93 A 23.935 23.935 0 0 1 611.865 29.468 A 38.679 38.679 0 0 1 608.457 35.353 A 49.108 49.108 0 0 1 605.567 39.088 A 134.705 134.705 0 0 1 601.172 43.989 A 180.36 180.36 0 0 1 596.094 49.171 L 580.567 64.649 L 580.567 64.991 L 617.041 64.991 Z M 413.819 0.928 L 413.819 7.911 A 17.261 17.261 0 0 0 411.884 7.361 A 23.318 23.318 0 0 0 409.693 6.983 A 37.173 37.173 0 0 0 405.029 6.69 Q 398.398 6.69 393.836 8.799 A 16.557 16.557 0 0 0 390.747 10.645 A 21.423 21.423 0 0 0 383.955 19.516 A 26.582 26.582 0 0 0 383.252 21.363 Q 380.957 28.126 380.615 36.573 L 381.152 36.573 A 18.415 18.415 0 0 1 384.578 32.529 A 20.82 20.82 0 0 1 385.01 32.154 A 16.583 16.583 0 0 1 388.494 29.917 A 20.905 20.905 0 0 1 390.698 29.005 A 19.875 19.875 0 0 1 394.318 28.126 Q 396.021 27.869 397.935 27.837 A 32.924 32.924 0 0 1 398.486 27.833 A 26.047 26.047 0 0 1 403.997 28.391 A 20.118 20.118 0 0 1 409.4 30.372 Q 414.063 32.911 416.626 37.745 A 21.067 21.067 0 0 1 418.626 43.46 Q 419.19 46.236 419.19 49.464 A 33.503 33.503 0 0 1 418.666 55.532 A 24.347 24.347 0 0 1 416.455 62.208 Q 413.721 67.579 408.667 70.484 A 21.437 21.437 0 0 1 401.597 72.981 A 28.942 28.942 0 0 1 396.631 73.389 A 23.831 23.831 0 0 1 389.84 72.443 A 21.563 21.563 0 0 1 387.012 71.387 A 21.098 21.098 0 0 1 379.587 65.691 A 24.449 24.449 0 0 1 379.37 65.43 A 25.358 25.358 0 0 1 376.097 60.213 A 33.843 33.843 0 0 1 374.317 55.591 Q 372.625 50.081 372.517 42.879 A 65.996 65.996 0 0 1 372.51 41.895 A 86.618 86.618 0 0 1 373.413 29.297 A 51.078 51.078 0 0 1 375.469 20.55 A 45.346 45.346 0 0 1 376.465 17.847 A 30.285 30.285 0 0 1 382.324 8.546 Q 386.035 4.542 391.577 2.271 Q 396.583 0.22 403.403 0.022 A 50.936 50.936 0 0 1 404.883 0.001 A 50.364 50.364 0 0 1 407.613 0.078 A 62.859 62.859 0 0 1 409.619 0.22 A 31.291 31.291 0 0 1 411.365 0.418 Q 412.154 0.531 412.832 0.679 A 14.186 14.186 0 0 1 413.819 0.928 Z M 105.713 72.413 L 96.826 72.413 L 126.123 8.448 L 87.207 8.448 L 87.207 1.026 L 134.815 1.026 L 134.815 7.276 L 105.713 72.413 Z M 563.428 48.536 L 563.428 55.86 L 552.735 55.86 L 552.735 72.413 L 544.824 72.413 L 544.824 55.86 L 510.303 55.86 L 510.303 49.024 L 544.287 0.635 L 552.735 0.635 L 552.735 48.536 L 563.428 48.536 Z M 207.813 88.233 L 200.147 88.233 A 67.349 67.349 0 0 0 207.984 74.952 A 72.487 72.487 0 0 0 212.72 60.279 A 75.1 75.1 0 0 0 214.307 44.874 A 76.459 76.459 0 0 0 212.695 29.2 Q 211.084 21.485 207.935 14.356 A 65.478 65.478 0 0 0 200.049 1.026 L 207.813 1.026 Q 212.842 7.032 216.089 14.088 Q 219.336 21.143 220.923 28.931 A 79.893 79.893 0 0 1 222.51 44.922 A 78.925 78.925 0 0 1 220.923 60.816 Q 219.336 68.555 216.089 75.489 A 55.076 55.076 0 0 1 207.813 88.233 Z M 14.697 1.026 L 22.461 1.026 Q 15.381 10.303 11.817 21.631 A 77.146 77.146 0 0 0 8.252 44.922 A 75.1 75.1 0 0 0 9.839 60.328 A 71.402 71.402 0 0 0 14.575 74.952 Q 17.725 81.983 22.363 88.233 L 14.697 88.233 A 57.885 57.885 0 0 1 6.445 75.464 A 64.316 64.316 0 0 1 1.587 60.84 A 78.321 78.321 0 0 1 0 45.02 A 80.504 80.504 0 0 1 1.587 28.956 Q 3.174 21.143 6.445 14.063 A 58.471 58.471 0 0 1 14.697 1.026 Z M 518.36 48.536 L 544.824 48.536 L 544.824 25.196 A 254.954 254.954 0 0 1 544.837 22.639 A 185.746 185.746 0 0 1 544.873 20.338 A 153.898 153.898 0 0 1 544.934 18.238 A 124.076 124.076 0 0 1 545.02 16.285 A 426.128 426.128 0 0 0 545.111 14.448 A 369.148 369.148 0 0 0 545.191 12.696 A 251.116 251.116 0 0 0 545.313 9.327 L 544.922 9.327 A 72.039 72.039 0 0 1 543.657 11.854 A 88.397 88.397 0 0 1 542.798 13.453 A 44.481 44.481 0 0 1 541.596 15.51 A 34.65 34.65 0 0 1 540.381 17.335 L 518.36 48.536 Z M 396.533 66.553 A 16.816 16.816 0 0 0 401.319 65.905 A 12.966 12.966 0 0 0 407.178 62.305 A 13.246 13.246 0 0 0 410.018 57.466 Q 411.182 54.096 411.182 49.464 A 22.42 22.42 0 0 0 410.741 44.882 Q 410.157 42.085 408.799 39.924 A 12.857 12.857 0 0 0 407.617 38.331 Q 404.336 34.555 397.994 34.255 A 23.663 23.663 0 0 0 396.875 34.229 A 19.846 19.846 0 0 0 392.576 34.674 A 15.286 15.286 0 0 0 388.379 36.255 A 17.278 17.278 0 0 0 384.995 38.705 A 14.376 14.376 0 0 0 382.764 41.358 A 13.05 13.05 0 0 0 381.327 44.263 A 10.311 10.311 0 0 0 380.762 47.608 A 23.335 23.335 0 0 0 381.491 53.322 A 26.357 26.357 0 0 0 381.714 54.151 Q 382.666 57.471 384.619 60.303 Q 386.572 63.135 389.551 64.844 A 12.76 12.76 0 0 0 394.016 66.369 A 16.645 16.645 0 0 0 396.533 66.553 Z M 478.223 49.171 L 454.004 49.171 L 454.004 41.944 L 478.223 41.944 L 478.223 49.171 Z" vector-effect="non-scaling-stroke"/></g></svg>